<mxfile host="app.diagrams.net" modified="2024-04-28T09:05:24.592Z" agent="Mozilla/5.0 (Windows NT 10.0; Win64; x64) AppleWebKit/537.36 (KHTML, like Gecko) Chrome/124.0.0.0 Safari/537.36 Edg/124.0.0.0" etag="6NVFzGxsxB5zWuDzspgH" version="24.3.0" type="github">
  <diagram name="第 1 页" id="8pYBM5akXOHLCJZj3LBZ">
    <mxGraphModel dx="1386" dy="751" grid="1" gridSize="10" guides="1" tooltips="1" connect="1" arrows="1" fold="1" page="1" pageScale="1" pageWidth="827" pageHeight="1169" math="0" shadow="0">
      <root>
        <mxCell id="0" />
        <mxCell id="1" parent="0" />
        <mxCell id="xWTh3WDd0B7nydl5swli-9" value="" style="rounded=0;whiteSpace=wrap;html=1;dashed=1;gradientColor=none;fillColor=none;" vertex="1" parent="1">
          <mxGeometry x="780" y="210" width="170" height="330" as="geometry" />
        </mxCell>
        <mxCell id="xWTh3WDd0B7nydl5swli-1" value="" style="rounded=0;whiteSpace=wrap;html=1;fillColor=none;dashed=1;" vertex="1" parent="1">
          <mxGeometry x="30" y="210" width="180" height="330" as="geometry" />
        </mxCell>
        <mxCell id="xWTh3WDd0B7nydl5swli-17" style="edgeStyle=orthogonalEdgeStyle;rounded=0;orthogonalLoop=1;jettySize=auto;html=1;exitX=1;exitY=0.5;exitDx=0;exitDy=0;" edge="1" parent="1" source="xWTh3WDd0B7nydl5swli-2" target="xWTh3WDd0B7nydl5swli-3">
          <mxGeometry relative="1" as="geometry" />
        </mxCell>
        <mxCell id="xWTh3WDd0B7nydl5swli-2" value="pweb服务" style="rounded=1;whiteSpace=wrap;html=1;fillColor=#dae8fc;strokeColor=#6c8ebf;sketch=1;curveFitting=1;jiggle=2;" vertex="1" parent="1">
          <mxGeometry x="60" y="270" width="120" height="60" as="geometry" />
        </mxCell>
        <mxCell id="xWTh3WDd0B7nydl5swli-3" value="" style="rounded=0;whiteSpace=wrap;html=1;fillColor=none;dashed=1;" vertex="1" parent="1">
          <mxGeometry x="270" y="210" width="210" height="330" as="geometry" />
        </mxCell>
        <mxCell id="xWTh3WDd0B7nydl5swli-12" style="edgeStyle=orthogonalEdgeStyle;rounded=0;orthogonalLoop=1;jettySize=auto;html=1;exitX=0.5;exitY=1;exitDx=0;exitDy=0;" edge="1" parent="1" source="xWTh3WDd0B7nydl5swli-4" target="xWTh3WDd0B7nydl5swli-5">
          <mxGeometry relative="1" as="geometry" />
        </mxCell>
        <mxCell id="xWTh3WDd0B7nydl5swli-4" value="eob-appcif" style="rounded=1;whiteSpace=wrap;html=1;fillColor=#d5e8d4;strokeColor=#82b366;sketch=1;curveFitting=1;jiggle=2;" vertex="1" parent="1">
          <mxGeometry x="320" y="270" width="120" height="60" as="geometry" />
        </mxCell>
        <mxCell id="xWTh3WDd0B7nydl5swli-13" style="edgeStyle=orthogonalEdgeStyle;rounded=0;orthogonalLoop=1;jettySize=auto;html=1;exitX=0.5;exitY=1;exitDx=0;exitDy=0;" edge="1" parent="1" source="xWTh3WDd0B7nydl5swli-5" target="xWTh3WDd0B7nydl5swli-6">
          <mxGeometry relative="1" as="geometry" />
        </mxCell>
        <mxCell id="xWTh3WDd0B7nydl5swli-5" value="eob-core" style="rounded=1;whiteSpace=wrap;html=1;fillColor=#d5e8d4;strokeColor=#82b366;sketch=1;curveFitting=1;jiggle=2;" vertex="1" parent="1">
          <mxGeometry x="320" y="360" width="120" height="60" as="geometry" />
        </mxCell>
        <mxCell id="xWTh3WDd0B7nydl5swli-18" style="edgeStyle=orthogonalEdgeStyle;rounded=0;orthogonalLoop=1;jettySize=auto;html=1;exitX=1;exitY=0.5;exitDx=0;exitDy=0;entryX=0;entryY=0.5;entryDx=0;entryDy=0;" edge="1" parent="1" source="xWTh3WDd0B7nydl5swli-6" target="xWTh3WDd0B7nydl5swli-8">
          <mxGeometry relative="1" as="geometry" />
        </mxCell>
        <mxCell id="xWTh3WDd0B7nydl5swli-6" value="eob-daq" style="rounded=1;whiteSpace=wrap;html=1;fillColor=#d5e8d4;strokeColor=#82b366;sketch=1;curveFitting=1;jiggle=2;" vertex="1" parent="1">
          <mxGeometry x="320" y="450" width="120" height="60" as="geometry" />
        </mxCell>
        <mxCell id="xWTh3WDd0B7nydl5swli-7" value="" style="rounded=0;whiteSpace=wrap;html=1;fillColor=none;dashed=1;" vertex="1" parent="1">
          <mxGeometry x="550" y="210" width="170" height="330" as="geometry" />
        </mxCell>
        <mxCell id="xWTh3WDd0B7nydl5swli-19" style="edgeStyle=orthogonalEdgeStyle;rounded=0;orthogonalLoop=1;jettySize=auto;html=1;exitX=1;exitY=0.5;exitDx=0;exitDy=0;entryX=0;entryY=0.5;entryDx=0;entryDy=0;" edge="1" parent="1" source="xWTh3WDd0B7nydl5swli-8" target="xWTh3WDd0B7nydl5swli-10">
          <mxGeometry relative="1" as="geometry" />
        </mxCell>
        <mxCell id="xWTh3WDd0B7nydl5swli-8" value="eob爬虫服务" style="rounded=1;whiteSpace=wrap;html=1;fillColor=#f8cecc;strokeColor=#b85450;sketch=1;curveFitting=1;jiggle=2;" vertex="1" parent="1">
          <mxGeometry x="580" y="270" width="120" height="60" as="geometry" />
        </mxCell>
        <mxCell id="xWTh3WDd0B7nydl5swli-10" value="SFC网站" style="rounded=1;whiteSpace=wrap;html=1;fillColor=#e1d5e7;strokeColor=#9673a6;sketch=1;curveFitting=1;jiggle=2;" vertex="1" parent="1">
          <mxGeometry x="810" y="270" width="120" height="60" as="geometry" />
        </mxCell>
        <mxCell id="xWTh3WDd0B7nydl5swli-20" value="web" style="text;html=1;align=center;verticalAlign=middle;whiteSpace=wrap;rounded=0;" vertex="1" parent="1">
          <mxGeometry x="70" y="160" width="60" height="30" as="geometry" />
        </mxCell>
        <mxCell id="xWTh3WDd0B7nydl5swli-21" value="eob" style="text;html=1;align=center;verticalAlign=middle;whiteSpace=wrap;rounded=0;" vertex="1" parent="1">
          <mxGeometry x="345" y="160" width="60" height="30" as="geometry" />
        </mxCell>
        <mxCell id="xWTh3WDd0B7nydl5swli-22" value="外网爬虫服务" style="text;html=1;align=center;verticalAlign=middle;whiteSpace=wrap;rounded=0;" vertex="1" parent="1">
          <mxGeometry x="610" y="160" width="60" height="30" as="geometry" />
        </mxCell>
        <mxCell id="xWTh3WDd0B7nydl5swli-23" value="香港证监会网站" style="text;html=1;align=center;verticalAlign=middle;whiteSpace=wrap;rounded=0;" vertex="1" parent="1">
          <mxGeometry x="835" y="160" width="60" height="30" as="geometry" />
        </mxCell>
      </root>
    </mxGraphModel>
  </diagram>
</mxfile>
